<?xml version="1.0" encoding="utf-8"?>
<!-- Generator: Adobe Illustrator 23.1.1, SVG Export Plug-In . SVG Version: 6.00 Build 0)  -->
<svg version="1.1" id="Logo" xmlns="http://www.w3.org/2000/svg" xmlns:xlink="http://www.w3.org/1999/xlink" x="0px" y="0px"
	 viewBox="0 0 982 681" style="enable-background:new 0 0 982 681;" xml:space="preserve">
<style type="text/css">
	.st0{fill:#FFFFFF;}
</style>
<g>
	<path class="st0" d="M382.7,655.9c-17.1,0-45.1-15.4-45.1-47.2c0-63.9,82.6-133.1,82.6-201.2c0-11.7-8.3-21.3-22.1-21.3
		c-41.3,0-83.9,32.6-83.9,60.5c0,26.3,32.1,19.2,32.1,46.3c0,18.4-15.4,28.8-31.3,28.8c-22.5,0-40.1-18.4-40.1-43.8
		c0-60.9,73.9-108.9,134.4-108.9c33,0,50.1,21.3,50.1,51.3c0,73.9-55.5,135.2-55.5,187.8c0,10,9.6,15.9,17.1,15.9
		c12.9,0,35.1-12.1,68-60.9c19.6-29.2,35.5-97.2,45.5-123.1c10-25.9,12.1-29.6,29.2-34.2c17.1-4.6,40.5-11.7,48.8-11.7
		c5.8,0,8.3,3.8,8.3,8.8c0,5-68.4,123.5-68.4,204.9c0,21.3,12.1,30.1,30.1,30.1c40.1,0,96.8-109.8,96.8-168.6
		c0-29.6-25.5-36.7-25.5-61.8c0-20.9,15.4-37.1,37.1-37.1c18.4,0,31.3,17.9,31.3,43.4c0,93.1-84.7,242.1-155.3,242.1
		c-51.8,0-69.3-31.7-75.5-70.5C441.5,644.6,415.6,655.9,382.7,655.9z"/>
	<path class="st0" d="M795,606.2l5.8,4.6c0,0-30.1,45.5-65.1,45.5c-18.4,0-36.3-8.3-36.3-30c0-28.8,11.7-64.3,17.5-86
		c1.7-6.3,2.9-10.9,11.3-12.5c19.2-4.2,29.2-6.3,35.5-6.3c3.8,0,6.7,1.3,6.7,5.8c0,11.3-26.7,68.4-26.7,95.2
		c0,8.8,4.2,14.2,10.4,14.2C771.6,636.7,786.2,617.5,795,606.2z M792.5,450.1c0,20.9-17.1,37.1-31.3,37.1
		c-13.8,0-24.2-8.8-24.2-22.5c0-19.2,16.3-36.7,33.4-36.7C783.3,428,792.5,436.3,792.5,450.1z"/>
	<path class="st0" d="M950.2,627.9c2.5,0,3.8,1.3,3.8,4.2c0,6.3-20.5,24.2-42.2,24.2c-18.4,0-32.1-8.3-32.1-30
		c0-28.8,17.5-55.1,17.5-76.4c0-5.4-2.1-8.8-7.5-8.8c-12.1,0-35.9,20-43.8,35.9c-10,20.9-17.9,55.9-17.9,69.3c0,10-30.9,10-35.1,10
		c-3.3,0-5.4-1.7-5.4-5.8c0-28.8,15.4-88.1,20.5-110.2c1.7-6.7,2.5-10.4,10.4-12.5c19.2-5,25.9-6.3,32.1-6.3c3.8,0,6.7,1.3,6.7,5.8
		c0,5-2.5,15.9-6.3,26.3c10-10.4,39.6-30.9,63-30.9c21.7,0,27.1,11.3,27.1,26.7c0,18.4-17.1,46.3-17.1,73c0,8.8,4.2,14.2,10.4,14.2
		C942.3,636.7,947.3,627.9,950.2,627.9z"/>
</g>
<g>
	<path class="st0" d="M189.6,86.7c0-16.8,16.8-24.4,16.8-35.9C206,44.2,200.2,38,188.2,38c-19.5,0-35.4,13.7-35.4,38.5
		c0,59.3,63.8,84.1,63.8,162.1c0,58.5-46.1,99.6-103.2,99.6c-49.6,0-88.6-25.2-88.6-74.8c0-41.6,32.3-67.3,63.8-67.3
		c16.8,0,29.2,8.9,29.2,25.2c0,14.6-10.2,25.2-23.5,25.2c-19.5,0-21.3-15.1-30.6-15.1c-9.7,0-23,9.3-23,35c0,31,26.6,48.3,62,48.3
		c27.9,0,53.6-21.7,53.6-73.1c0-50.5-55.8-89.9-55.8-140.8c0-45.2,47.4-75.3,89-75.3c35,0,58.9,18.6,58.9,46.9
		c0,20.8-12,37.6-32.3,37.6C202,110.2,189.6,102.2,189.6,86.7z"/>
	<path class="st0" d="M241.8,453.4c0,10.6-32.8,10.6-37.2,10.6c-3.5,0-5.8-1.8-5.8-6.2c0-20.4,21.7-104.5,36.3-170.9
		c7.1-33.2,11.5-61.1,13.3-76.2c0.9-7.1,1.8-11.1,10.6-13.3c20.4-4.9,28.3-6.6,35-6.6c4,0,7.1,1.3,7.1,6.2c0,5.3-4.4,22.6-4.4,22.6
		s27.5-27.5,62.4-27.5c23,0,37.6,18.2,37.6,41.2c0,23-13.7,56.7-25.2,70.9c24.8,0,39-5.3,52.3-23.5l6.2,4.9
		c-14.6,20.8-26.1,27.9-66.4,27.9c-14.6,12.4-30.6,20.4-54.5,20.4c-27.5,0-38.1-16.4-38.1-16.4C257.8,363.9,241.8,427.7,241.8,453.4
		z M278.1,297.1c0,17.7,11.5,23.9,24.8,23.9c15.1,0,23.5-11.5,23.5-11.5s-10.2-8.9-10.2-19c0-12.4,10.2-19.9,19-19.9
		c4.9,0,9.3,1.8,9.3,1.8s5.8-8.9,5.8-37.6c0-15.5-5.3-23-15.9-23C301.6,211.6,278.1,270.9,278.1,297.1z"/>
	<path class="st0" d="M519.5,280.7l6.2,4.9c0,0-31.9,48.3-69.1,48.3c-19.5,0-38.5-8.9-38.5-31.9c0-30.6,12.4-68.2,18.6-91.2
		c1.8-6.6,3.1-11.5,12-13.3c20.4-4.4,31-6.6,37.6-6.6c4,0,7.1,1.3,7.1,6.2c0,12-28.3,72.6-28.3,101c0,9.3,4.4,15.1,11.1,15.1
		C494.7,313,510.2,292.6,519.5,280.7z M516.8,115.1c0,22.1-18.2,39.4-33.2,39.4c-14.6,0-25.7-9.3-25.7-23.9c0-20.4,17.3-39,35.4-39
		C507.1,91.6,516.8,100.4,516.8,115.1z"/>
	<path class="st0" d="M710.8,280.7l6.2,4.9c0,0-31.9,48.3-69.1,48.3c-19.5,0-38.5-8.9-38.5-31.9c0-30.6,18.6-58.5,18.6-81
		c0-5.8-2.2-9.3-8-9.3c-12.8,0-38.1,21.3-46.5,38.1c-10.6,22.1-19,59.3-19,73.5c0,10.6-32.8,10.6-37.2,10.6c-3.5,0-5.8-1.8-5.8-6.2
		c0-30.6,16.4-93.4,21.7-116.9c1.8-7.1,2.7-11.1,11.1-13.3c20.4-5.3,27.5-6.6,34.1-6.6c4,0,7.1,1.3,7.1,6.2c0,5.3-2.7,16.8-6.6,27.9
		c10.6-11.1,42.1-32.8,66.9-32.8c23,0,28.8,12,28.8,28.3c0,19.5-18.2,49.2-18.2,77.5c0,9.3,4.4,15.1,11.1,15.1
		C686,313,701.5,292.6,710.8,280.7z"/>
</g>
<g>
	<path class="st0" d="M886,366.5h-8.2c-1.1,0-2-0.1-2.7-0.4c-0.7-0.2-1.5-0.8-2.4-1.7l-18.8-18.4c-2.7,3.2-5.7,6.1-9,8.8
		c-3.3,2.7-6.9,5-10.7,6.9c-3.9,2-8,3.5-12.4,4.6s-9,1.7-13.9,1.7c-4.6,0-9.1-0.8-13.6-2.3c-4.5-1.5-8.5-3.8-12-6.7
		c-3.5-3-6.4-6.6-8.5-10.9c-2.2-4.3-3.3-9.2-3.3-14.7c0-4.4,0.8-8.6,2.4-12.6c1.6-4,3.8-7.7,6.5-11c2.8-3.3,6-6.3,9.8-8.9
		c3.8-2.6,7.9-4.8,12.3-6.4c-4.4-5-7.7-9.7-9.8-14.3c-2.1-4.6-3.2-9.5-3.2-14.8c0-4.3,0.8-8.2,2.3-11.9c1.6-3.6,3.8-6.8,6.7-9.5
		c2.9-2.7,6.3-4.8,10.3-6.3c4-1.5,8.5-2.3,13.4-2.3c4.1,0,8,0.7,11.6,2.1c3.7,1.4,6.9,3.3,9.6,5.7c2.7,2.4,4.9,5.2,6.5,8.3
		c1.6,3.2,2.5,6.4,2.6,9.9l-5,1c-0.6,0.1-1.2,0-1.7-0.3c-0.5-0.3-0.9-0.9-1.2-1.8c-0.3-1.7-1-3.5-2-5.6c-1-2.1-2.4-4-4.3-5.9
		s-4.1-3.4-6.8-4.6c-2.7-1.3-5.8-1.9-9.4-1.9c-3.7,0-7,0.6-10,1.7c-3,1.1-5.6,2.7-7.7,4.8c-2.1,2-3.8,4.5-5,7.3
		c-1.2,2.8-1.8,5.9-1.8,9.3c0,5,1.3,9.8,3.9,14.4c2.6,4.6,6.5,9.5,11.9,14.8l41,40.3c2.8-4.4,4.9-9,6.5-13.7
		c1.6-4.7,2.6-9.3,3.1-13.8c0.1-0.8,0.4-1.4,0.7-1.9c0.4-0.5,0.9-0.7,1.7-0.7h5c-0.1,5.7-1.2,11.7-3.2,17.8
		c-2,6.1-4.9,11.9-8.7,17.5L886,366.5z M805.8,298.8c-4,1.7-7.7,3.7-11,6.1c-3.3,2.4-6,5-8.3,8c-2.3,2.9-4,6.1-5.2,9.4
		c-1.2,3.4-1.8,6.8-1.8,10.5c0,4.7,0.9,8.8,2.7,12.3c1.8,3.5,4.1,6.4,7,8.8c2.9,2.4,6.1,4.1,9.6,5.3c3.5,1.2,7,1.7,10.4,1.7
		c4.3,0,8.4-0.5,12.2-1.5c3.8-1,7.4-2.3,10.7-4.1c3.3-1.7,6.4-3.8,9.2-6.2c2.8-2.4,5.4-5,7.6-7.8l-42.1-41.4L805.8,298.8z"/>
</g>
</svg>
