<?xml version="1.0" encoding="utf-8"?>
<!-- Generator: Adobe Illustrator 23.1.1, SVG Export Plug-In . SVG Version: 6.00 Build 0)  -->
<svg version="1.1" id="Spin__x26__Win" xmlns="http://www.w3.org/2000/svg" xmlns:xlink="http://www.w3.org/1999/xlink" x="0px"
	 y="0px" viewBox="0 0 337.9 337.9" style="enable-background:new 0 0 337.9 337.9;" xml:space="preserve">
<style type="text/css">
	.st0{opacity:1.000000e-02;fill:#414042;enable-background:new    ;}
	.st1{opacity:3.000000e-02;fill:#414042;enable-background:new    ;}
	.st2{opacity:5.000000e-02;fill:#414042;enable-background:new    ;}
	.st3{opacity:0.1;fill:#414042;enable-background:new    ;}
	.st4{opacity:0.15;fill:#414042;enable-background:new    ;}
	.st5{fill:#FFFFFF;}
	.st6{fill:#414042;}
</style>
<g>
	<circle class="st0" cx="169.2" cy="170.1" r="158.2"/>
	<circle class="st1" cx="169.2" cy="170.1" r="157"/>
	<circle class="st2" cx="169.2" cy="170.1" r="155.8"/>
	<circle class="st2" cx="169.2" cy="170.1" r="154.6"/>
	<circle class="st2" cx="169.2" cy="170.1" r="153.4"/>
	<circle class="st3" cx="169.2" cy="170.1" r="152.3"/>
	<circle class="st3" cx="169.2" cy="170.1" r="151.1"/>
	<circle class="st3" cx="169.2" cy="170.1" r="149.9"/>
	<circle class="st4" cx="169.2" cy="170.1" r="148.7"/>
	<circle class="st4" cx="169.2" cy="170.1" r="147.5"/>
	<g>
		<g>
			<circle class="st5" cx="169.2" cy="170.2" r="146.9"/>
			<g>
				<g>
					<path class="st6" d="M145.4,233.3c-3.4,0-9.1-3.1-9.1-9.4c0-12.7,16.5-26.7,16.5-40.4c0-2.4-1.7-4.2-4.5-4.2
						c-8.3,0-16.8,6.5-16.8,12.2c0,5.3,6.5,3.9,6.5,9.3c0,3.7-3.1,5.8-6.3,5.8c-4.5,0-8-3.7-8-8.7c0-12.2,14.8-21.8,26.9-21.8
						c6.6,0,10,4.2,10,10.3c0,14.8-11.1,27.1-11.1,37.7c0,2,1.9,3.2,3.4,3.2c2.6,0,7.1-2.5,13.7-12.2c3.9-5.9,7.1-19.5,9.1-24.7
						c2-5.2,2.5-5.9,5.9-6.8c3.4-0.9,8.1-2.4,9.8-2.4c1.2,0,1.7,0.7,1.7,1.8s-13.7,24.8-13.7,41.1c0,4.2,2.5,6,6,6
						c8,0,19.4-22,19.4-33.8c0-5.9-5.1-7.3-5.1-12.4c0-4.1,3.1-7.4,7.4-7.4c3.7,0,6.3,3.5,6.3,8.7c0,18.6-17,48.5-31.2,48.5
						c-10.4,0-13.9-6.4-15.1-14.2C157.2,231,152,233.3,145.4,233.3z"/>
					<path class="st6" d="M228,223.3l1.2,0.9c0,0-6,9.1-13.1,9.1c-3.7,0-7.3-1.7-7.3-6c0-5.8,2.4-12.9,3.5-17.2
						c0.4-1.3,0.6-2.1,2.2-2.5c3.9-0.8,5.9-1.3,7.1-1.3c0.7,0,1.3,0.2,1.3,1.2c0,2.2-5.3,13.7-5.3,19.1c0,1.8,0.8,2.8,2.1,2.8
						C223.4,229.4,226.2,225.5,228,223.3z M227.5,192c0,4.1-3.4,7.4-6.3,7.4c-2.7,0-4.8-1.8-4.8-4.5c0-3.9,3.3-7.3,6.7-7.3
						C225.7,187.7,227.5,189.3,227.5,192z"/>
					<path class="st6" d="M259.2,227.7c0.5,0,0.7,0.2,0.7,0.8c0,1.3-4.1,4.8-8.5,4.8c-3.7,0-6.5-1.7-6.5-6c0-5.8,3.5-11.1,3.5-15.3
						c0-1.1-0.5-1.8-1.5-1.8c-2.5,0-7.2,4-8.7,7.2c-2,4.1-3.5,11.2-3.5,13.9c0,2-6.1,2-7.1,2c-0.7,0-1.1-0.4-1.1-1.2
						c0-5.8,3.1-17.7,4.1-22.1c0.4-1.3,0.5-2.1,2.1-2.5c3.9-1.1,5.2-1.3,6.5-1.3c0.7,0,1.3,0.2,1.3,1.2c0,1.1-0.5,3.2-1.3,5.3
						c2-2.1,7.9-6.1,12.6-6.1c4.4,0,5.4,2.2,5.4,5.3c0,3.7-3.4,9.3-3.4,14.6c0,1.8,0.8,2.8,2.1,2.8
						C257.5,229.4,258.6,227.7,259.2,227.7z"/>
				</g>
				<g>
					<path class="st6" d="M106.7,119.2c0-3.4,3.4-4.8,3.4-7.2c-0.1-1.3-1.3-2.6-3.7-2.6c-3.9,0-7.1,2.7-7.1,7.7
						c0,11.9,12.7,16.9,12.7,32.5c0,11.7-9.2,19.9-20.7,19.9c-9.9,0-17.7-5.1-17.7-15c0-8.4,6.5-13.5,12.7-13.5
						c3.4,0,5.9,1.8,5.9,5.1c0,3-2,5.1-4.7,5.1c-3.9,0-4.2-3.1-6.1-3.1c-2,0-4.6,1.9-4.6,7c0,6.3,5.3,9.7,12.4,9.7
						c5.5,0,10.7-4.4,10.7-14.6c0-10.2-11.2-18.1-11.2-28.2c0-9.1,9.4-15.1,17.8-15.1c7,0,11.8,3.8,11.8,9.4c0,4.1-2.4,7.6-6.5,7.6
						C109.2,123.9,106.7,122.3,106.7,119.2z"/>
					<path class="st6" d="M117.2,192.7c0,2.1-6.6,2.1-7.4,2.1c-0.7,0-1.2-0.4-1.2-1.3c0-4.1,4.4-20.9,7.3-34.2
						c1.4-6.6,2.4-12.3,2.7-15.2c0.2-1.4,0.4-2.2,2.1-2.7c4.1-0.9,5.7-1.3,7-1.3c0.8,0,1.4,0.2,1.4,1.3c0,1.1-0.9,4.5-0.9,4.5
						s5.5-5.5,12.5-5.5c4.6,0,7.6,3.7,7.6,8.3c0,4.6-2.7,11.3-5.1,14.2c5,0,7.8-1.1,10.5-4.7l1.3,0.9c-3,4.1-5.2,5.5-13.3,5.5
						c-3,2.5-6.1,4.1-11,4.1c-5.5,0-7.7-3.3-7.7-3.3C120.4,174.8,117.2,187.5,117.2,192.7z M124.5,161.3c0,3.5,2.4,4.8,5,4.8
						c3.1,0,4.7-2.4,4.7-2.4s-2-1.8-2-3.8c0-2.5,2-4,3.8-4c0.9,0,1.9,0.4,1.9,0.4s1.2-1.8,1.2-7.6c0-3.1-1.1-4.6-3.2-4.6
						C129.1,144.2,124.5,156.1,124.5,161.3z"/>
					<path class="st6" d="M172.8,158l1.3,0.9c0,0-6.4,9.7-13.8,9.7c-3.9,0-7.7-1.8-7.7-6.4c0-6.1,2.5-13.7,3.8-18.3
						c0.4-1.3,0.6-2.4,2.4-2.7c4.1-0.9,6.3-1.3,7.6-1.3c0.8,0,1.4,0.2,1.4,1.3c0,2.4-5.7,14.5-5.7,20.2c0,1.9,0.9,3.1,2.2,3.1
						C167.8,164.5,171,160.5,172.8,158z M172.3,124.9c0,4.5-3.7,7.9-6.6,7.9s-5.2-1.9-5.2-4.8c0-4.1,3.4-7.8,7.1-7.8
						C170.3,120.1,172.3,121.9,172.3,124.9z"/>
					<path class="st6" d="M211.1,158l1.3,0.9c0,0-6.4,9.7-13.8,9.7c-3.9,0-7.7-1.8-7.7-6.4c0-6.1,3.8-11.7,3.8-16.3
						c0-1.2-0.5-1.9-1.7-1.9c-2.6,0-7.7,4.2-9.3,7.7c-2.1,4.5-3.8,11.9-3.8,14.8c0,2.1-6.6,2.1-7.4,2.1c-0.7,0-1.2-0.4-1.2-1.3
						c0-6.1,3.3-18.8,4.4-23.5c0.4-1.4,0.6-2.2,2.2-2.7c4.1-1.1,5.5-1.3,6.8-1.3c0.8,0,1.4,0.2,1.4,1.3c0,1.1-0.6,3.4-1.3,5.5
						c2.1-2.2,8.4-6.6,13.5-6.6c4.6,0,5.8,2.4,5.8,5.7c0,3.9-3.7,9.8-3.7,15.6c0,1.9,0.9,3.1,2.2,3.1
						C206.2,164.5,209.4,160.5,211.1,158z"/>
				</g>
				<g>
					<path class="st6" d="M247,175.5h-1.8c-0.2,0-0.5,0-0.6-0.1c-0.1,0-0.4-0.1-0.5-0.4l-4-4c-0.6,0.7-1.2,1.3-1.9,1.9
						c-0.7,0.6-1.5,1.1-2.4,1.5c-0.8,0.5-1.8,0.7-2.7,0.9c-0.9,0.2-1.9,0.4-3,0.4c-0.9,0-2-0.1-3-0.5c-0.9-0.4-1.8-0.8-2.6-1.4
						c-0.7-0.6-1.4-1.4-1.9-2.4c-0.5-0.9-0.7-2-0.7-3.2c0-0.9,0.1-1.9,0.5-2.7c0.4-0.8,0.8-1.7,1.4-2.4c0.6-0.7,1.3-1.4,2.1-1.9
						c0.8-0.6,1.7-1.1,2.6-1.4c-0.9-1.1-1.7-2.1-2.1-3.1c-0.5-0.9-0.7-2-0.7-3.2c0-0.9,0.1-1.8,0.5-2.6c0.4-0.8,0.8-1.4,1.4-2
						c0.6-0.6,1.4-1.1,2.2-1.4c0.8-0.4,1.8-0.5,3-0.5c0.8,0,1.8,0.1,2.5,0.5c0.8,0.4,1.5,0.7,2.1,1.2c0.6,0.5,1.1,1.1,1.4,1.8
						s0.6,1.4,0.6,2.1l-1.1,0.2c-0.1,0-0.2,0-0.4-0.1c-0.1-0.1-0.2-0.2-0.2-0.4c-0.1-0.4-0.2-0.7-0.5-1.2c-0.2-0.5-0.5-0.8-0.9-1.3
						c-0.5-0.5-0.8-0.7-1.4-0.9c-0.6-0.2-1.3-0.4-2-0.4c-0.8,0-1.5,0.1-2.1,0.4c-0.6,0.2-1.2,0.6-1.7,1.1c-0.5,0.5-0.8,0.9-1.1,1.5
						s-0.4,1.3-0.4,2c0,1.1,0.2,2.1,0.8,3.1c0.6,0.9,1.4,2,2.6,3.2l8.9,8.7c0.6-0.9,1.1-1.9,1.4-3s0.6-2,0.7-3
						c0-0.1,0.1-0.4,0.1-0.4c0.1-0.1,0.2-0.1,0.4-0.1h1.1c0,1.3-0.2,2.5-0.7,3.8c-0.5,1.3-1.1,2.6-1.9,3.8L247,175.5z M229.7,161
						c-0.8,0.4-1.7,0.8-2.4,1.3c-0.7,0.5-1.3,1.1-1.8,1.8c-0.5,0.6-0.8,1.3-1.2,2c-0.2,0.7-0.4,1.5-0.4,2.2c0,1.1,0.2,1.9,0.6,2.6
						c0.4,0.7,0.9,1.4,1.5,1.9c0.6,0.5,1.3,0.9,2.1,1.2c0.7,0.2,1.5,0.4,2.2,0.4c0.9,0,1.8-0.1,2.6-0.4c0.8-0.2,1.5-0.5,2.4-0.8
						c0.7-0.4,1.4-0.8,2-1.3c0.6-0.5,1.2-1.1,1.7-1.7l-9.1-9L229.7,161z"/>
				</g>
			</g>
		</g>
	</g>
</g>
</svg>
