<?xml version="1.0" encoding="utf-8"?>
<!-- Generator: Adobe Illustrator 23.1.1, SVG Export Plug-In . SVG Version: 6.00 Build 0)  -->
<svg version="1.1" id="Stopper" xmlns="http://www.w3.org/2000/svg" xmlns:xlink="http://www.w3.org/1999/xlink" x="0px" y="0px"
	 viewBox="0 0 658.4 1033.4" style="enable-background:new 0 0 658.4 1033.4;" xml:space="preserve">
<style type="text/css">
	.st0{opacity:3.000000e-02;}
	.st1{fill:#414042;}
	.st2{opacity:1.000000e-02;}
	.st3{opacity:5.000000e-02;}
	.st4{opacity:8.000000e-02;}
	.st5{opacity:0.1;}
	.st6{fill:#FF634E;}
</style>
<g class="st0">
	<g>
		<path class="st1" d="M125.4,265.2c0-113.7,94-206,203.8-206S533,151.5,533,265.2c0,2.8,0,5.6,0,8.4c0,1.7,0,3.9,0,5.6
			c0,170-203.8,703.1-203.8,703.1S124.9,457.7,125.4,279.3c0-2.3,0-3.9,0-5.6C125.4,270.8,125.4,268,125.4,265.2z"/>
	</g>
</g>
<g class="st0">
	<g>
		<path class="st1" d="M123.8,266.3c0-114.3,94.6-207.2,204.9-207.2c110.3,0,204.9,92.9,204.9,207.2c0,2.8,0,5.6,0,8.4
			c0,1.7,0,3.9,0,5.6c0,170.6-204.9,707-204.9,707s-204.9-528-204.9-707c0-2.3,0-3.9,0-6.2C124.3,272,123.8,269.2,123.8,266.3z"/>
	</g>
</g>
<g class="st0">
	<g>
		<path class="st1" d="M122.6,267.5c0-114.8,95.1-208.3,206-208.3c110.9,0,206,93.4,206,208.3c0,2.8,0,5.6,0,9c0,1.7,0,3.9,0,5.6
			c0,171.7-206.6,711.5-206.6,711.5s-206-531.4-206-711.5c0-2.3,0-3.9,0-6.2C122.6,273.1,122.6,270.3,122.6,267.5z"/>
	</g>
</g>
<g class="st2">
	<g>
		<path class="st1" d="M121.5,268.6c0-116,95.7-209.4,207.7-209.4c111.5,0,207.2,94,207.2,209.4c0,2.8,0,5.6,0,9c0,1.7,0,3.9,0,5.6
			c0,172.8-207.7,715.5-207.7,715.5s-207.2-534.2-207.2-716c0-2.3,0-3.9,0-6.2C121.5,274.8,121.5,272,121.5,268.6z"/>
	</g>
</g>
<g class="st2">
	<g>
		<path class="st1" d="M120.4,270.3c0-116.5,96.3-211.1,208.8-211.1c112,0,208.8,94.6,208.8,211.1c0,2.8,0,6.2,0,9
			c0,1.7,0,3.9,0,5.6c0,173.9-208.8,720-208.8,720s-208.8-537.6-208.8-720c0-2.3,0-3.9,0-6.2C120.4,275.9,120.4,273.1,120.4,270.3z"
			/>
	</g>
</g>
<g class="st3">
	<g>
		<path class="st1" d="M125.4,268c0-112.6,94-203.2,203.8-203.2S533,156,533,268c0,2.8,0,5.6,0,8.4c0,1.7,0,3.9,0,5.6
			c0,167.7-203.8,694.1-203.8,694.1S124.9,458.3,125.4,282.7c0-2.3,0-3.9,0-5.6C125.4,273.7,125.4,270.8,125.4,268z"/>
	</g>
</g>
<g class="st3">
	<g>
		<path class="st1" d="M125.4,266.9c0-111.5,94-202.1,203.8-202.1S533,155.4,533,266.9c0,2.8,0,5.6,0,8.4c0,1.7,0,3.9,0,5.6
			c0,166.6-203.8,690.1-203.8,690.1S124.9,456,125.4,281c0-1.7,0-3.9,0-5.6C125.4,272.5,125.4,269.7,125.4,266.9z"/>
	</g>
</g>
<g class="st3">
	<g>
		<path class="st1" d="M126.6,270.3C126.6,160,220,70.4,329.2,70.4c108.6,0,202.6,89.5,202.6,199.8c0,2.8,0,5.6,0,8.4
			c0,1.7,0,3.9,0,5.6c0,164.4-202.6,681.7-202.6,681.7S127.1,457.2,127.1,284.4c0-1.7,0-3.9,0-5.6
			C126.6,275.3,126.6,272.5,126.6,270.3z"/>
	</g>
</g>
<g class="st4">
	<g>
		<path class="st1" d="M127.7,277.6c0-108.1,92.9-195.9,201-195.9s201,87.8,201,195.9c0,2.8,0,5.6,0,8.4c0,1.7,0,3.4,0,5.6
			c0,161.6-201.5,668.7-201.5,668.7s-201-499.3-201-668.7c0-1.7,0-3.9,0-5.6C127.7,282.7,127.7,280.4,127.7,277.6z"/>
	</g>
</g>
<g class="st4">
	<g>
		<path class="st1" d="M129.9,266.3c0-108.1,91.8-195.9,198.7-195.9s198.7,87.8,198.7,195.9c0,2.8,0,5.6,0,8.4c0,1.7,0,3.4,0,5.6
			c0,161.6-198.7,674.9-198.7,674.9S129.9,449.9,129.9,280.4c0-1.7,0-3.9,0-5.6C129.9,272,129.9,269.2,129.9,266.3z"/>
	</g>
</g>
<g class="st4">
	<g>
		<path class="st1" d="M131.1,274.2c0-106.4,91.8-192.5,197.6-192.5s197.6,86.1,197.6,192.5c0,2.8,0,5.6,0,7.9c0,1.7,0,3.4,0,5.6
			c0,158.7-197.6,662-197.6,662s-197.6-495.9-197.6-662c0-1.7,0-3.9,0-5.6C131.1,279.3,131.1,276.5,131.1,274.2z"/>
	</g>
</g>
<g class="st4">
	<g>
		<path class="st1" d="M133.3,271.4c0-104.7,90.6-190.3,195.3-189.7c104.7,0,195.3,85,195.3,190.3c0,2.8,0,5.1,0,7.9
			c0,1.7,0,3.4,0,5.1C524,441.4,328.7,939,328.7,939S133.3,449.3,133.3,284.9c0-1.7,0-3.4,0-5.6C133.9,277,133.3,274.2,133.3,271.4z
			"/>
	</g>
</g>
<g class="st4">
	<g>
		<path class="st1" d="M135,270.3c0-104.1,90.1-188.6,194.2-188.6s194.2,84.4,194.2,189.1c0,2.8,0,5.1,0,7.9c0,1.7,0,3.4,0,5.1
			c0,155.9-194.2,644.5-194.2,644.5S135,447,135,283.8c0-1.7,0-3.4,0-5.6C135,275.9,135,273.1,135,270.3z"/>
	</g>
</g>
<g class="st5">
	<g>
		<path class="st1" d="M139.5,277C139.5,175.1,227.3,93,328.7,93S517.8,175.1,517.8,277c0,2.8,0,5.1,0,7.9c0,1.7,0,3.4,0,5.1
			c0,151.4-189.1,633.3-189.1,633.3S139.5,448.7,139.5,290c0-1.7,0-3.4,0-5.1C139.5,282.1,139.5,279.3,139.5,277z"/>
	</g>
</g>
<g class="st5">
	<g>
		<path class="st1" d="M140.6,275.9c0-100.8,87.3-182.9,188-182.9s188,81.6,188,182.9c0,2.8,0,5.1,0,7.9c0,1.7,0,3.4,0,5.1
			c0,150.9-188,629.3-188,629.3s-188-471.7-188-629.3c0-1.7,0-3.4,0-5.1C140.6,281,140.6,278.2,140.6,275.9z"/>
	</g>
</g>
<g class="st5">
	<g>
		<path class="st1" d="M142.9,273.7C142.9,174,229,93,328.7,93S514.4,174,514.4,273.7c0,2.8,0,5.1,0,7.3c0,1.7,0,3.4,0,5.1
			c0,148.6-185.8,621.5-185.8,621.5S142.9,442,142.9,286c0-1.7,0-3.4,0-5.1C143.5,278.2,142.9,275.9,142.9,273.7z"/>
	</g>
</g>
<g class="st5">
	<g>
		<path class="st1" d="M145.7,271.4c0-98.5,85-178.4,183.5-178.4s183.5,79.9,183.5,178.4c0,2.3,0,5.1,0,7.3c0,1.7,0,3.4,0,5.1
			c0,146.9-183.5,613.6-183.5,613.6S145.7,438,145.7,283.8c0-1.7,0-3.4,0-5.1C145.7,275.9,145.7,273.7,145.7,271.4z"/>
	</g>
</g>
<g>
	<g>
		<path class="st6" d="M140.6,230.3c0-104.1,84.4-188,188-188c104.1,0,188,84.4,188,188c0,2.8,0,5.1,0,7.9c0,1.7,0,3.4,0,5.1
			c0,155.4-188,647.9-188,647.9s-188-485.2-188-647.9c0-1.7,0-3.4,0-5.6C140.6,235.4,140.6,233.1,140.6,230.3z"/>
	</g>
</g>
</svg>
