<?xml version="1.0" encoding="utf-8"?>
<!-- Generator: Adobe Illustrator 23.1.1, SVG Export Plug-In . SVG Version: 6.00 Build 0)  -->
<svg version="1.1" xmlns="http://www.w3.org/2000/svg" xmlns:xlink="http://www.w3.org/1999/xlink" x="0px" y="0px"
	 viewBox="0 0 1200 1200" style="enable-background:new 0 0 1200 1200;" xml:space="preserve">
<style type="text/css">
	.st0{fill:#414042;}
	.st1{fill:#FFFFFF;}
	.st2{fill:#7F7F7F;}
	.st3{fill:#A09FA0;}
	.st4{display:none;}
	.st5{display:inline;}
	.st6{opacity:0.5;fill:#7F7F7F;}
	.st7{fill:#008EA0;}
	.st8{fill:#C1CD24;}
	.st9{fill:#006975;}
	.st10{fill:#00B5CC;}
	.st11{fill:url(#SVGID_1_);}
	.st12{opacity:0.2;fill:#414042;}
	.st13{opacity:5.000000e-02;fill:#414042;}
	.st14{fill:#FF634E;}
</style>
<g id="Lights_1">
	<g>
		<circle class="st0" cx="597.9" cy="626.1" r="568.2"/>
	</g>
	<g>
		<circle class="st1" cx="503" cy="107.7" r="24"/>
		<circle class="st2" cx="306" cy="187" r="24"/>
		<circle class="st2" cx="701" cy="110.1" r="24"/>
		<circle class="st3" cx="79.8" cy="522.1" r="24"/>
		<circle class="st1" cx="163.2" cy="326.8" r="24"/>
		<circle class="st3" cx="492.2" cy="1143.6" r="24"/>
		<circle class="st1" cx="296.9" cy="1060.2" r="24"/>
		<circle class="st1" cx="77.8" cy="720.4" r="24"/>
		<circle class="st3" cx="157.1" cy="917.4" r="24"/>
		<circle class="st1" cx="897.3" cy="192.7" r="24"/>
		<circle class="st1" cx="1116.7" cy="530.6" r="24"/>
		<circle class="st3" cx="1036.5" cy="334" r="24"/>
		<circle class="st1" cx="694.2" cy="1145.2" r="24"/>
		<circle class="st3" cx="890.8" cy="1065" r="24"/>
		<circle class="st3" cx="1115.5" cy="729" r="24"/>
		<circle class="st1" cx="1033" cy="924.6" r="24"/>
	</g>
</g>
<g id="Lights_2" class="st4">
	<g class="st5">
		<circle class="st6" cx="503" cy="107.7" r="24"/>
		<circle class="st1" cx="306" cy="187" r="24"/>
		<circle class="st1" cx="701" cy="110.1" r="24"/>
		<circle class="st1" cx="79.8" cy="522.1" r="24"/>
		<circle class="st6" cx="163.2" cy="326.8" r="24"/>
		<circle class="st1" cx="492.2" cy="1143.6" r="24"/>
		<circle class="st6" cx="296.9" cy="1060.2" r="24"/>
		<circle class="st6" cx="77.8" cy="720.4" r="24"/>
		<circle class="st1" cx="157.1" cy="917.4" r="24"/>
		<circle class="st6" cx="897.3" cy="192.7" r="24"/>
		<circle class="st6" cx="1116.7" cy="530.6" r="24"/>
		<circle class="st1" cx="1036.5" cy="334" r="24"/>
		<circle class="st6" cx="694.2" cy="1145.2" r="24"/>
		<circle class="st1" cx="890.8" cy="1065" r="24"/>
		<circle class="st1" cx="1115.5" cy="729" r="24"/>
		<circle class="st6" cx="1033" cy="924.6" r="24"/>
	</g>
	<g id="_x36_mDbbV.tif_1_" class="st5">
		
			<image style="overflow:visible;" width="36" height="54" id="Layer_0_3_" xlink:href="5C529CDFC7707F2A.png"  transform="matrix(0.5 0 0 0.5 591 611.5)">
		</image>
	</g>
	<g id="_x30_N2Fc0.tif_1_" class="st5">
		
			<image style="overflow:visible;" width="52" height="70" id="Layer_0_2_" xlink:href="5C529CDFC7707F2E.png"  transform="matrix(0.5 0 0 0.5 587 607.5)">
		</image>
	</g>
</g>
<g id="Wheel_1_">
	<g>
		<g>
			<circle class="st1" cx="596.7" cy="626.6" r="489.5"/>
		</g>
		<circle class="st7" cx="327" cy="1015.9" r="8.5"/>
		<circle class="st7" cx="201.9" cy="888.2" r="8.5"/>
		<circle class="st7" cx="132.7" cy="532" r="8.5"/>
		<circle class="st7" cx="130.7" cy="710.8" r="8.5"/>
		<circle class="st7" cx="503.1" cy="1091" r="8.5"/>
		<circle class="st7" cx="681.8" cy="1092.8" r="8.5"/>
		<circle class="st7" cx="986.8" cy="896.2" r="8.5"/>
		<circle class="st7" cx="859.1" cy="1021.4" r="8.5"/>
		<circle class="st7" cx="207" cy="357.5" r="8.5"/>
		<circle class="st7" cx="334.6" cy="232.2" r="8.5"/>
		<circle class="st7" cx="1061.1" cy="719.8" r="8.5"/>
		<circle class="st7" cx="866.8" cy="237.6" r="8.5"/>
		<circle class="st7" cx="1062.6" cy="541.4" r="8.5"/>
		<circle class="st7" cx="991.2" cy="364.6" r="8.5"/>
		<circle class="st7" cx="690.6" cy="162.4" r="8.5"/>
		<circle class="st7" cx="511.8" cy="160.7" r="8.5"/>
		<g>
			<g>
				<polygon class="st8" points="597.4,626.5 597.4,626.5 597.4,626.5 597.4,626.5 597.4,626.5 				"/>
				<polygon class="st1" points="597.4,626.5 597.4,626.5 597.4,626.5 597.4,626.5 597.4,626.5 597.4,626.5 				"/>
			</g>
			<g>
				<polygon class="st8" points="597.5,626.5 597.5,626.5 597.5,626.5 				"/>
				<polygon class="st1" points="597.5,626.5 597.5,626.5 597.5,626.5 597.5,626.5 				"/>
			</g>
			<g>
				<polygon class="st8" points="597.4,626.5 597.4,626.5 597.4,626.5 				"/>
				<polygon class="st1" points="597.4,626.5 597.4,626.5 597.4,626.5 597.4,626.5 				"/>
			</g>
			<g>
				<polygon class="st8" points="597.5,626.5 597.5,626.5 597.5,626.5 597.4,626.4 597.4,626.5 597.4,626.5 				"/>
				<polygon class="st1" points="597.4,626.4 597.4,626.5 597.4,626.5 597.5,626.5 597.5,626.5 597.5,626.5 597.4,626.4 				"/>
			</g>
			<g>
				<polygon class="st8" points="597.4,626.5 597.4,626.5 597.4,626.5 				"/>
				<polygon class="st1" points="597.4,626.5 597.4,626.5 597.4,626.5 597.4,626.5 				"/>
			</g>
			<g>
				<polygon class="st8" points="597.5,626.5 597.5,626.5 597.5,626.5 597.5,626.5 				"/>
				<polygon class="st1" points="597.5,626.5 597.5,626.5 597.5,626.5 597.5,626.5 597.5,626.5 				"/>
			</g>
			<g>
				<polygon class="st8" points="597.5,626.5 597.5,626.5 597.5,626.4 597.5,626.5 				"/>
				<polygon class="st1" points="597.5,626.4 597.5,626.5 597.5,626.5 597.5,626.5 597.5,626.4 				"/>
			</g>
			<g>
				<polygon class="st8" points="597.5,626.5 597.5,626.5 597.5,626.5 597.5,626.5 				"/>
				<polygon class="st1" points="597.5,626.5 597.5,626.5 597.5,626.5 597.5,626.5 597.5,626.5 				"/>
			</g>
			<g>
				<polygon class="st8" points="597.5,626.5 597.5,626.5 597.5,626.4 597.4,626.4 597.4,626.4 				"/>
				<polygon class="st1" points="597.4,626.4 597.4,626.4 597.5,626.5 597.5,626.5 597.5,626.4 597.4,626.4 				"/>
			</g>
			<g>
				<polygon class="st8" points="597.5,626.5 597.4,626.5 597.4,626.5 597.5,626.5 597.5,626.5 				"/>
				<polygon class="st1" points="597.5,626.5 597.5,626.5 597.4,626.5 597.4,626.5 597.5,626.5 597.5,626.5 				"/>
			</g>
			<g>
				<polygon class="st8" points="597.4,626.6 597.4,626.5 597.4,626.5 				"/>
				<polygon class="st1" points="597.4,626.5 597.4,626.5 597.4,626.6 597.4,626.5 				"/>
			</g>
			<g>
				<polygon class="st8" points="597.6,626.5 597.5,626.5 597.5,626.5 				"/>
				<polygon class="st1" points="597.5,626.5 597.5,626.5 597.6,626.5 597.5,626.5 				"/>
			</g>
			<g>
				<polygon class="st8" points="597.6,626.4 597.5,626.5 597.5,626.5 				"/>
				<polygon class="st1" points="597.6,626.4 597.5,626.5 597.5,626.5 597.6,626.4 				"/>
			</g>
			<g>
				<polygon class="st8" points="597.4,626.4 597.4,626.5 597.4,626.4 				"/>
				<polygon class="st1" points="597.4,626.4 597.4,626.5 597.4,626.4 597.4,626.4 				"/>
			</g>
			<g>
				<polygon class="st8" points="597.5,626.5 597.5,626.5 597.5,626.5 				"/>
				<polygon class="st1" points="597.5,626.5 597.5,626.5 597.5,626.5 597.5,626.5 				"/>
			</g>
			<g>
				<polygon class="st8" points="597.5,626.5 597.5,626.5 597.5,626.5 597.5,626.5 				"/>
				<polygon class="st1" points="597.5,626.5 597.5,626.5 597.5,626.5 597.5,626.5 597.5,626.5 				"/>
			</g>
			<g>
				<polygon class="st8" points="597.4,626.4 597.4,626.4 597.5,626.5 				"/>
				<polygon class="st1" points="597.4,626.4 597.4,626.4 597.5,626.5 597.4,626.4 				"/>
			</g>
			<g>
				<polygon class="st8" points="597.4,626.5 597.5,626.5 597.4,626.5 				"/>
				<polygon class="st1" points="597.5,626.5 597.4,626.5 597.4,626.5 597.5,626.5 				"/>
			</g>
			<g>
				<path class="st8" d="M980.5,373.6c34.2,51.8,57.2,109.1,68.4,170.3l-446.8,80.7L980.5,373.6z"/>
				<path class="st1" d="M980.2,375c16.7,25.5,30.9,52.7,42.3,81.1c11.2,28,19.7,57.3,25.2,87.1l-441,79.7L980.2,375 M980.8,372.2
					L597.6,626.4l452.5-81.7C1039,483.6,1015.7,424.8,980.8,372.2L980.8,372.2z"/>
			</g>
			<g>
				<path class="st9" d="M602.8,626.5l446.5-80.7c10.2,56.9,9.7,114.3-1.6,170.7L602.8,626.5z"/>
				<g>
					<path class="st1" d="M1048.5,547c9.9,56.1,9.4,112.7-1.5,168.4l-438.8-88.8L1048.5,547 M1050.1,544.7l-452.5,81.7l0,0l0,0
						l451,91.3C1060.1,660.3,1060.4,601.5,1050.1,544.7L1050.1,544.7z"/>
				</g>
			</g>
			<g>
				<path class="st10" d="M601.1,630.2l373.1,259c-33.1,47.6-74,87.8-121.8,119.7L601.1,630.2z"/>
				<g>
					<path class="st1" d="M604.9,634l368,255.4c-32.7,46.8-73.1,86.5-120.1,118.1L604.9,634 M597.5,626.5L597.5,626.5l254.6,383.8
						c47-31.2,89-71.7,123.1-120.9c0.1-0.2,0.2-0.3,0.3-0.5L597.5,626.5L597.5,626.5L597.5,626.5z"/>
				</g>
			</g>
			<g>
				<path class="st9" d="M596.6,1086.3c-30,0-60.1-3-89.5-8.8l90.2-445.8l80.8,447.3C651.3,1083.9,623.9,1086.3,596.6,1086.3
					C596.6,1086.3,596.6,1086.3,596.6,1086.3z"/>
				<g>
					<path class="st1" d="M597.3,637.1l79.7,441.2c-26.5,4.7-53.5,7.1-80.4,7.1c-29.6,0-59.3-2.9-88.3-8.6L597.3,637.1 M597.4,626.5
						L597.4,626.5L597.4,626.5L506,1078.3c30,6,60.4,9,90.7,9c27.8,0,55.5-2.5,82.7-7.5L597.4,626.5L597.4,626.5z"/>
				</g>
			</g>
			<g>
				<path class="st8" d="M599.3,631L850.8,1010c-51.8,34.3-109.2,57.4-170.6,68.7L599.3,631z"/>
				<path class="st1" d="M601.1,635.5l248.3,374.2c-25.5,16.8-52.8,31.1-81.2,42.5c-28.1,11.3-57.4,19.8-87.2,25.3L601.1,635.5
					 M597.5,626.5L597.5,626.5l81.8,453.4c61.2-11.1,120.1-34.6,172.8-69.6L597.5,626.5L597.5,626.5z"/>
			</g>
			<g>
				<path class="st7" d="M602.1,628.4l445.2,90.1c-12.3,60.7-36.5,117.5-72,169L602.1,628.4z"/>
				<path class="st1" d="M606.7,630.4l439.5,89c-12.3,59.9-36.2,116-71.1,166.8L606.7,630.4 M597.6,626.5l378,262.4
					c36.8-53.2,60.9-111.5,72.9-171.1L597.6,626.5L597.6,626.5z"/>
			</g>
			<g>
				<path class="st9" d="M516.8,174.4c26.6-4.7,53.7-7.1,80.6-7.1c30.3,0,60.6,3,90.2,8.9l-90.1,444.9L516.8,174.4z"/>
				<g>
					<path class="st1" d="M597.4,168.3c29.9,0,59.8,2.9,89,8.7l-88.8,438.8L518,175.2C544.1,170.6,570.8,168.3,597.4,168.3
						 M597.4,166.3c-27.5,0-54.8,2.4-81.8,7.3l81.8,452.8l0,0l0,0l91.3-450.9C658.5,169.3,627.9,166.3,597.4,166.3L597.4,166.3z"/>
				</g>
			</g>
			<g>
				<path class="st8" d="M344.3,243c51.8-34.1,109.2-57.1,170.6-68.2l80.7,447L344.3,243z"/>
				<path class="st1" d="M514,175.9l79.7,441.3L345.6,243.3c25.5-16.7,52.8-30.9,81.2-42.2C454.9,189.9,484.2,181.4,514,175.9
					 M515.6,173.6c-61.1,11-120.1,34.3-172.8,69.1l254.5,383.7L515.6,173.6L515.6,173.6z"/>
			</g>
			<g>
				<path class="st10" d="M860,250.1c47.4,33.1,87.6,74.1,119.4,121.8L601.2,622.8L860,250.1z"/>
				<path class="st1" d="M860.2,251.5c46.7,32.7,86.3,73.2,117.8,120.2L605,619.1L860.2,251.5 M859.7,248.7L597.5,626.4l0,0l0,0
					l383.2-254.3C949.5,325,909,282.9,859.7,248.7L859.7,248.7z"/>
			</g>
			<g>
				<path class="st7" d="M689.5,176.6c60.7,12.4,117.5,36.7,168.8,72.3L599.4,622L689.5,176.6z"/>
				<g>
					<path class="st1" d="M690.3,177.8c59.9,12.4,115.9,36.4,166.7,71.3L601.3,617.5L690.3,177.8 M688.7,175.5l-91.3,450.9l0.1,0
						l262.2-377.8c0,0-0.1-0.1-0.1-0.1C806.5,211.7,748.3,187.5,688.7,175.5L688.7,175.5z"/>
				</g>
			</g>
			<g>
				<path class="st9" d="M144.6,707.2c-10.1-57-9.5-114.5,1.8-171.1l445.7,90.2L144.6,707.2z"/>
				<path class="st1" d="M147.2,537.3l439.6,89l-441.4,79.7C135.6,649.9,136.2,593.1,147.2,537.3 M145.7,535
					c-11.7,57.6-12.1,116.5-1.9,173.4l453.6-81.9l0,0l0,0L145.7,535L145.7,535z"/>
			</g>
			<g>
				<path class="st7" d="M146.9,534.2c12.5-60.8,36.9-117.7,72.5-169.1L593,624.5L146.9,534.2z"/>
				<path class="st1" d="M219.6,366.5l368.9,256.1L148,533.4C160.5,473.5,184.5,417.3,219.6,366.5 M219.1,363.7
					c-0.1,0.2-0.2,0.3-0.4,0.5c-36.8,53.1-61,111.2-73.1,170.7l451.8,91.5l0-0.1L219.1,363.7L219.1,363.7z"/>
			</g>
			<g>
				<polygon class="st8" points="597.4,626.4 597.4,626.4 597.4,626.4 				"/>
				<polygon class="st1" points="597.4,626.4 597.4,626.4 597.4,626.4 597.4,626.4 				"/>
			</g>
			<g>
				<path class="st10" d="M220.5,363.5c33.2-47.5,74.3-87.6,122.1-119.4l251.1,378.5L220.5,363.5z"/>
				<path class="st1" d="M342.3,245.5L590,618.8L221.9,363.3C254.7,316.5,295.2,276.9,342.3,245.5 M342.8,242.7
					c-47.2,31.2-89.5,71.7-123.8,121l378.3,262.6l0,0L342.8,242.7L342.8,242.7z"/>
			</g>
			<g>
				<polygon class="st8" points="597.4,626.4 597.4,626.4 597.4,626.4 597.4,626.4 597.4,626.4 				"/>
				<polygon class="st1" points="597.4,626.4 597.4,626.4 597.4,626.4 597.4,626.4 597.4,626.4 597.4,626.4 				"/>
			</g>
			<g>
				<path class="st10" d="M334.3,1003.8c-47.6-33.2-87.9-74.2-119.7-122.1l379-251.5L334.3,1003.8z"/>
				<path class="st1" d="M589.8,634l-255.8,368.4C287.2,969.6,247.5,929.1,216,882L589.8,634 M597.4,626.5L213.2,881.5
					c31.3,47.2,71.9,89.4,121.2,123.6c0,0,0.1,0.1,0.1,0.1L597.4,626.5L597.4,626.5L597.4,626.5z"/>
			</g>
			<g>
				<path class="st7" d="M505.2,1077.1c-60.8-12.4-117.7-36.7-169.2-72.2l259.5-373.8L505.2,1077.1z"/>
				<path class="st1" d="M593.5,635.7L504.4,1076c-60-12.3-116.2-36.3-167-71.3L593.5,635.7 M597.4,626.6l-262.8,378.6
					c53.3,37,111.6,61.1,171.4,73.1L597.4,626.6L597.4,626.6z"/>
			</g>
			<g>
				<path class="st8" d="M213.5,880.1c-34.3-51.9-57.3-109.4-68.5-170.8l448-80.9L213.5,880.1z"/>
				<path class="st1" d="M588.4,630.1L213.8,878.7c-16.8-25.5-31-52.9-42.4-81.3c-11.2-28.1-19.7-57.5-25.2-87.4L588.4,630.1
					 M597.4,626.5l-453.6,81.9c11,61.3,34.4,120.3,69.4,173L597.4,626.5L597.4,626.5L597.4,626.5z"/>
			</g>
			<g>
				<polygon class="st8" points="597.4,626.4 597.4,626.4 597.4,626.4 				"/>
				<polygon class="st1" points="597.4,626.4 597.4,626.4 597.4,626.4 597.4,626.4 				"/>
			</g>
		</g>
	</g>
</g>
<g id="OR">
	<g>
		<circle class="st1" cx="596.5" cy="627.1" r="96"/>
		<g>
			<polyline class="st10" points="588.7,610.2 575.6,673 588.3,675.7 601.4,612.8 588.7,610.2 			"/>
			<path class="st0" d="M625.6,616.9c3.7-17.7-7.7-35.1-25.4-38.8c-17.7-3.7-35.1,7.7-38.8,25.4c-3.7,17.7,7.7,35.1,25.4,38.8
				C604.5,646.1,621.9,634.7,625.6,616.9L625.6,616.9z M611.8,614.1c-2.1,10.2-12.1,16.7-22.2,14.6c-10.2-2.1-16.7-12.1-14.6-22.2
				c2.1-10.2,12.1-16.7,22.2-14.6C607.4,593.9,614,603.9,611.8,614.1L611.8,614.1z"/>
			<path class="st10" d="M626.4,644c0.9-1.7,1.6-3.6,2.1-5.7c0.6-2.7,0.6-5.3,0.2-7.9c-0.5-2.5-1.6-4.8-3.3-7
				c-1.7-2.1-4.2-4-7.3-5.7c-3.1-1.6-7-3-11.7-3.9l-5.2-1.1l-2.3,11.1l5.2,1.1c3.9,0.8,6.6,2.2,8.1,4.2c1.5,2,2,4.4,1.4,7.2
				c-0.3,1.4-0.8,2.7-1.4,3.8c-0.7,1.1-1.6,2.1-2.7,2.8c-1.1,0.7-2.4,1.2-4,1.4c-1.5,0.2-3.3,0.1-5.4-0.3l-5-1l-14.8,7.5l15.4,3.2
				c1.2,0.2,2,0.6,2.6,1.1c0.5,0.5,1,1.2,1.3,2.1l7.1,19.6c0.7,2.1,2.3,3.4,4.8,3.9l13.6,2.8l-9.4-23.9c-0.5-1.2-1.2-2.7-1.9-3.6
				c-0.7-0.9-0.6-0.7-1.6-1.8c2.7-0.4,3.6-1.1,5.5-2c1.9-0.9,3.5-2,5-3.3C624.2,647.3,625.4,645.8,626.4,644L626.4,644z"/>
			<linearGradient id="SVGID_1_" gradientUnits="userSpaceOnUse" x1="591.1176" y1="630.3079" x2="592.4105" y2="624.2175">
				<stop  offset="0" style="stop-color:#008EA0"/>
				<stop  offset="0.7708" style="stop-color:#00ABC1"/>
				<stop  offset="1" style="stop-color:#00B5CC"/>
			</linearGradient>
			<path class="st11" d="M586.4,621.2l12.5,3.3l-0.8,4c0,0-3.6,1-7.3,0.4c-3.7-0.6-5.6-1.7-5.6-1.7L586.4,621.2z"/>
		</g>
	</g>
</g>
<g id="Stopper">
	<g>
		<path class="st12" d="M634,55.6c0-18.9-16-32.9-33.5-32.9c-0.1,0-0.1,0-0.2,0c0,0-0.1,0-0.1,0c-16.6,0-33.5,12.7-33.5,32.9
			s4.8,32.5,10.4,51.2c9.8,33.2,22.9,66.9,22.9,66.9s3.1-7.9,7.3-19.5c9.5-26.3,26.7-72.5,26.7-98"/>
		<path class="st12" d="M634,58.6c0-18.9-16-32.9-33.5-32.9c-0.1,0-0.1,0-0.2,0c0,0-0.1,0-0.1,0c-16.6,0-33.5,12.7-33.5,32.9
			s4.8,32.5,10.4,51.2c9.8,33.2,22.9,66.9,22.9,66.9s3.1-7.9,7.3-19.5c9.5-26.3,26.7-72.5,26.7-98"/>
		<path class="st12" d="M634,52.6c0-18.9-16-32.9-33.5-32.9c-0.1,0-0.1,0-0.2,0c0,0-0.1,0-0.1,0c-16.6,0-33.5,12.7-33.5,32.9
			s4.8,32.5,10.4,51.2c9.8,33.2,22.9,66.9,22.9,66.9s3.1-7.9,7.3-19.5c9.5-26.3,26.7-72.5,26.7-98"/>
		<path class="st13" d="M634,46.6c0-18.9-16-32.9-33.5-32.9c-0.1,0-0.1,0-0.2,0c0,0-0.1,0-0.1,0c-16.6,0-33.5,12.7-33.5,32.9
			s4.8,32.5,10.4,51.2c9.8,33.2,22.9,66.9,22.9,66.9s3.1-7.9,7.3-19.5c9.5-26.3,26.7-72.5,26.7-98"/>
		<path class="st12" d="M634,49.6c0-18.9-16-32.9-33.5-32.9c-0.1,0-0.1,0-0.2,0c0,0-0.1,0-0.1,0c-16.6,0-33.5,12.7-33.5,32.9
			s4.8,32.5,10.4,51.2c9.8,33.2,22.9,66.9,22.9,66.9s3.1-7.9,7.3-19.5c9.5-26.3,26.7-72.5,26.7-98"/>
		<path class="st14" d="M624,47"/>
		<path class="st14" d="M634,46.6c0-18.9-16-32.9-33.5-32.9c-0.1,0-0.1,0-0.2,0c0,0-0.1,0-0.1,0c-16.6,0-33.5,12.7-33.5,32.9
			s4.8,32.5,10.4,51.2c9.8,33.2,22.9,66.9,22.9,66.9s3.1-7.9,7.3-19.5c9.5-26.3,26.7-72.5,26.7-98"/>
	</g>
</g>
</svg>
