<?xml version="1.0" encoding="utf-8"?>
<!-- Generator: Adobe Illustrator 23.1.1, SVG Export Plug-In . SVG Version: 6.00 Build 0)  -->
<svg version="1.1" xmlns="http://www.w3.org/2000/svg" xmlns:xlink="http://www.w3.org/1999/xlink" x="0px" y="0px"
	 viewBox="0 0 639 142" style="enable-background:new 0 0 639 142;" xml:space="preserve">
<style type="text/css">
	.st0{fill:#FFFFFF;}
</style>
<g id="Layer_2">
</g>
<g id="Layer_1">
	<g>
		<path class="st0" d="M76.4,79.8l1.5,1.1c0,0-7.5,12.3-24.1,12.3c-3,0-7.9-0.4-11.8-2.1c-8.2-3.5-15.2-11.1-15.2-24
			c0-20.6,13.4-35.4,25.6-42.4c4.8-2.7,10-4.4,16.2-4.4c8.5,0,13.5,5.2,13.5,11.8c0,6.6-4.1,10-8.2,10c-3.8,0-6-2.9-6-6
			c0-5.5,5.2-6.7,5.2-9.8c0-2-1.4-2.8-3.5-2.8C60,23.6,41.6,42,41.6,67.5c0,13.8,7.3,22.2,17.7,22.2C69,89.7,75.7,80.7,76.4,79.8z"
			/>
		<path class="st0" d="M110.2,69.3c0,7.1-4.6,14-4.6,14s0.7,0.6,3.7,0.6c4.9,0,7.7-4.2,7.7-4.2l1.5,1.1c0,0-3.1,5.2-10.4,5.2
			c-2.4,0-4.2-0.7-4.2-0.7s-5.7,7.8-15.6,7.8c-6.5,0-13.4-3.8-13.4-12.3c0-12.2,10.8-22.3,24.2-22.3C105.6,58.6,110.2,63,110.2,69.3
			z M86.5,84.3c0,4.5,1.8,6.3,4.1,6.3c5.6,0,8-6.4,8-6.4s-2.3-1.3-2.3-4.2c0-2.9,2.2-4.9,4.1-4.9c1.4,0,2.3,0.7,2.3,0.7
			s2.2-4,2.2-8.7c0-3.8-1.8-6.1-5.2-6.1C92.8,61.1,86.5,74.2,86.5,84.3z"/>
		<path class="st0" d="M162.1,79.8l1.5,1.1c0,0-7.5,11.4-16.3,11.4c-4.6,0-9.1-2.1-9.1-7.5c0-7.2,4.4-13.8,4.4-19.1
			c0-1.4-0.5-2.2-1.9-2.2c-3,0-9,5-11,9c-2.5,5.2-4.5,14-4.5,17.3c0,2.5-7.7,2.5-8.8,2.5c-0.8,0-1.4-0.4-1.4-1.5
			c0-7.2,3.9-22,5.1-27.6c0.4-1.7,0.6-2.6,2.6-3.1c4.8-1.3,6.5-1.6,8-1.6c0.9,0,1.7,0.3,1.7,1.5c0,1.3-0.6,4-1.6,6.6
			c2.5-2.6,9.9-7.7,15.8-7.7c5.4,0,6.8,2.8,6.8,6.7c0,4.6-4.3,11.6-4.3,18.3c0,2.2,1,3.5,2.6,3.5C156.3,87.4,159.9,82.6,162.1,79.8z
			"/>
		<path class="st0" d="M172.4,123c-6.1,0-10.5-3.3-10.5-8.9c0-7.6,7.1-12.5,21-19.1c0.2-1.3,0.5-2.9,0.7-4.7c0.1-0.7,0.2-2,0.2-2.2
			c0-0.3-0.1-0.5-0.3-0.5c-0.2,0-0.4,0.2-0.8,0.5c-1.8,1.5-5.1,4.2-10.2,4.2c-5.3,0-11.7-2.7-11.7-11.4c0-11.4,9-22,19.9-22
			c3.9,0,6.6,1.9,7.9,3.2c0.6,0.6,0.8,0.9,1.1,0.9c0.3,0,0.9-0.6,1.5-1c3-2.4,8.7-3.8,10.8-3.8c0.6,0,1,0.5,1,1.1
			c0,0.9-1.7,2-3.3,5.8c-1.8,4.2-3.7,9.5-6,25.9c5.2-2.6,9.6-5.7,13.9-11.4l1.5,1.1c-4.4,6.3-8.9,9.3-15.6,12.7
			C191.5,108.6,187.7,123,172.4,123z M168.3,116.5c0,2.7,1.4,4.3,3.4,4.3c6.6,0,9.1-11.5,11-23.6
			C171.6,103.3,168.3,110.6,168.3,116.5z M182.2,62.3c-5.4,0-10.8,9.7-10.8,19.1c0,6,2.1,7.6,4.5,7.6c1.7,0,5-1.6,7.1-5.6
			c2.6-5,3.9-12.9,3.9-15.5C186.9,64.8,185.3,62.3,182.2,62.3z"/>
		<path class="st0" d="M243.3,79.8l1.5,1.1c0,0-7.5,11.4-16.3,11.4c-5.5,0-9.1-2.9-9.1-8.4c0-5.7,3.3-12.9,3.3-14.4
			c0-1-4.2-2.1-4.8-2.1c-0.7,0-1,0.2-1.5,1.1c-1.9,4.4-4.5,8.7-7.8,13.1l-1.5-1.1c2.9-4.4,7.2-11,7.2-14.2c0-0.6-0.2-1.5-0.7-1.9
			c-1.6-1.3-4.4-4.1-4.4-7.6c0-4.9,3.4-7.2,6.7-7.2c3.2,0,6,1.8,6,5.6c0,4.1-1.3,4.6-1.3,6.1c0,1,0.9,1.5,3.4,1.5c5,0,8-2.2,9.2-2.2
			c1.7,0,3.1,2,3.1,3.5c0,2.2-6.2,11-6.2,19.6c0,2.2,1.3,3.7,2.8,3.7C237.5,87.4,241.1,82.6,243.3,79.8z"/>
		<path class="st0" d="M284.2,59.4c0,0.9-1.7,2-3.3,5.8c-1.8,4.2-4.8,14.3-4.8,18.6c0,2.2,1,3.5,2.6,3.5c4.4,0,8-4.8,10.2-7.6
			l1.5,1.1c0,0-7.5,11.4-16.3,11.4c-4.6,0-6.7-2.4-7.6-4.1c-0.3-0.5-0.6-0.7-0.8-0.7c-0.2,0-0.5,0.1-0.9,0.4
			c-2,1.6-5.8,4.4-11.1,4.4c-5.3,0-11.7-2.7-11.7-11.4c0-11.4,9-22,19.9-22c4,0,6.5,1.8,8,3.3c0.5,0.5,0.7,0.6,1,0.6
			c0.3,0,0.7-0.2,1.1-0.6c2.9-2.5,8.9-4,11.1-4C283.8,58.3,284.2,58.8,284.2,59.4z M263.5,62.3c-5.4,0-10.8,9.7-10.8,19.1
			c0,6,2.1,7.6,4.5,7.6c1.7,0,5-1.6,7.1-5.6c2.6-5,3.9-12.9,3.9-15.5C268.2,64.8,266.5,62.3,263.5,62.3z"/>
		<path class="st0" d="M291.4,55.8h2.2c1.6-5.3,3-9.5,3.8-10.3c1.9-2.3,8.6-4.9,12.1-4.9c1,0,1.9,0.6,1.9,1.7c0,1-1.8,3.5-4,8.7
			c-0.5,1.3-1.3,2.9-2,4.9h7l-1,2.4h-6.9c-2.6,7.5-5.7,18.1-5.7,25.7c0,2.2,1,3.5,2.6,3.5c4.4,0,8-4.8,10.2-7.6l1.5,1.1
			c0,0-7.5,11.4-16.3,11.4c-4.6,0-9.1-2.1-9.1-7.5c0-5.7,2.6-17.4,5.2-26.6h-2.5L291.4,55.8z"/>
		<path class="st0" d="M358.3,79.8l1.5,1.1c0,0-7.5,11.4-16.3,11.4c-4.6,0-9.1-1.7-9.1-8.5c-1.7,1.8-9.1,8.5-15.2,8.5
			c-4.6,0-9.1-2.1-9.1-7.5c0-7.2,3.2-16.4,4.6-21.5c0.4-1.6,0.7-2.7,2.6-3.1c4.8-1,7.3-1.6,8.9-1.6c0.9,0,1.7,0.3,1.7,1.5
			c0,4.4-6.7,17.1-6.7,23.8c0,2.2,1,3.5,2.6,3.5c4.4,0,8.5-3.8,10.8-7.7c1.7-2.9,3.9-12.2,4.5-16.4c0.2-1.7,0.5-2.7,2.6-3.1
			c4.8-1,7.3-1.6,8.9-1.6c0.9,0,1.7,0.3,1.7,1.5c0,4.4-6.7,17.1-6.7,23.8c0,2.2,1,3.5,2.6,3.5C352.4,87.4,356.1,82.6,358.3,79.8z"/>
		<path class="st0" d="M380.9,79.8l1.5,1.1c0,0-7.5,11.4-16.3,11.4c-4.6,0-9.1-2.1-9.1-7.5c0-9.8,10.8-45.5,12.6-47.8
			c1.9-2.3,8.6-4.9,12.1-4.9c1,0,1.9,0.6,1.9,1.7c0,1-1.8,3.5-4,8.7c-2.4,5.6-11.6,30.7-11.6,41.4c0,2.2,1,3.5,2.6,3.5
			C375.1,87.4,378.7,82.6,380.9,79.8z"/>
		<path class="st0" d="M421.8,59.4c0,0.9-1.7,2-3.3,5.8c-1.8,4.2-4.8,14.3-4.8,18.6c0,2.2,1,3.5,2.6,3.5c4.4,0,8-4.8,10.2-7.6
			l1.5,1.1c0,0-7.5,11.4-16.3,11.4c-4.6,0-6.7-2.4-7.6-4.1c-0.3-0.5-0.6-0.7-0.8-0.7s-0.5,0.1-0.9,0.4c-2,1.6-5.8,4.4-11.1,4.4
			c-5.3,0-11.7-2.7-11.7-11.4c0-11.4,9-22,19.9-22c4,0,6.5,1.8,8,3.3c0.5,0.5,0.7,0.6,1,0.6c0.3,0,0.7-0.2,1.1-0.6
			c2.9-2.5,8.9-4,11.1-4C421.4,58.3,421.8,58.8,421.8,59.4z M401.1,62.3c-5.4,0-10.8,9.7-10.8,19.1c0,6,2.1,7.6,4.5,7.6
			c1.7,0,5-1.6,7.1-5.6c2.6-5,3.9-12.9,3.9-15.5C405.8,64.8,404.1,62.3,401.1,62.3z"/>
		<path class="st0" d="M429,55.8h2.2c1.6-5.3,3-9.5,3.8-10.3c1.9-2.3,8.6-4.9,12.1-4.9c1,0,1.9,0.6,1.9,1.7c0,1-1.8,3.5-4,8.7
			c-0.5,1.3-1.3,2.9-2,4.9h7l-1,2.4h-6.9c-2.6,7.5-5.7,18.1-5.7,25.7c0,2.2,1,3.5,2.6,3.5c4.4,0,8-4.8,10.2-7.6l1.5,1.1
			c0,0-7.5,11.4-16.3,11.4c-4.6,0-9.1-2.1-9.1-7.5c0-5.7,2.6-17.4,5.2-26.6H428L429,55.8z"/>
		<path class="st0" d="M471.7,79.8l1.5,1.1c0,0-7.5,11.4-16.3,11.4c-4.6,0-9.1-2.1-9.1-7.5c0-7.2,2.9-16.1,4.4-21.5
			c0.4-1.6,0.7-2.7,2.8-3.1c4.8-1,7.3-1.6,8.9-1.6c0.9,0,1.7,0.3,1.7,1.5c0,2.8-6.7,17.1-6.7,23.8c0,2.2,1,3.5,2.6,3.5
			C465.9,87.4,469.5,82.6,471.7,79.8z M471.1,40.7c0,5.2-4.3,9.3-7.8,9.3c-3.4,0-6.1-2.2-6.1-5.6c0-4.8,4.1-9.2,8.4-9.2
			C468.8,35.2,471.1,37.3,471.1,40.7z"/>
		<path class="st0" d="M505.7,69.3c0,7.1-4.6,14-4.6,14s0.7,0.6,3.7,0.6c4.9,0,7.7-4.2,7.7-4.2l1.5,1.1c0,0-3.1,5.2-10.4,5.2
			c-2.4,0-4.2-0.7-4.2-0.7s-5.7,7.8-15.6,7.8c-6.5,0-13.4-3.8-13.4-12.3c0-12.2,10.8-22.3,24.2-22.3C501.1,58.6,505.7,63,505.7,69.3
			z M482,84.3c0,4.5,1.8,6.3,4.1,6.3c5.6,0,8-6.4,8-6.4s-2.3-1.3-2.3-4.2c0-2.9,2.2-4.9,4.1-4.9c1.4,0,2.3,0.7,2.3,0.7
			s2.2-4,2.2-8.7c0-3.8-1.8-6.1-5.2-6.1C488.2,61.1,482,74.2,482,84.3z"/>
		<path class="st0" d="M557.5,79.8l1.5,1.1c0,0-7.5,11.4-16.3,11.4c-4.6,0-9.1-2.1-9.1-7.5c0-7.2,4.4-13.8,4.4-19.1
			c0-1.4-0.5-2.2-1.9-2.2c-3,0-9,5-11,9c-2.5,5.2-4.5,14-4.5,17.3c0,2.5-7.7,2.5-8.8,2.5c-0.8,0-1.4-0.4-1.4-1.5
			c0-7.2,3.9-22,5.1-27.6c0.4-1.7,0.6-2.6,2.6-3.1c4.8-1.3,6.5-1.6,8-1.6c0.9,0,1.7,0.3,1.7,1.5c0,1.3-0.6,4-1.6,6.6
			c2.5-2.6,9.9-7.7,15.8-7.7c5.4,0,6.8,2.8,6.8,6.7c0,4.6-4.3,11.6-4.3,18.3c0,2.2,1,3.5,2.6,3.5C551.7,87.4,555.3,82.6,557.5,79.8z
			"/>
		<path class="st0" d="M568.5,92.9c-12.2,0-14.7-5.6-14.7-9.5c0-3.2,2.7-6.4,5.8-6.4c1.1,0,6.1-6.5,6.1-9.5c0,0-2.3-3.8-2.3-7.4
			c0-5.7,4.6-9.1,8.5-9.1c2.9,0,5.6,2.1,5.6,5.5c0,3.9-5.1,9.7-5.1,9.7c3.8,5.5,8.5,8.2,8.5,15.2C580.8,88.5,575.6,92.9,568.5,92.9z
			 M562.7,77.4c0,0,2.9,1.6,2.9,4.6c0,4.1-3.7,6.4-3.7,6.4s0.4,2.4,3.4,2.4c3.2,0,5.1-3.1,5.1-8.2c0-5.1-3.7-10.9-3.7-10.9
			L562.7,77.4z"/>
		<path class="st0" d="M590.4,82.5c2.4,0,3.9,1.5,3.9,3.8c0,2.6-2.1,6.3-5.5,6.3c-2.2,0-4.1-1.6-4.1-3.9
			C584.7,85.9,587.2,82.5,590.4,82.5z M608.7,30.3C604.5,43.2,596,68.8,596,74.9c-1.5,0-7,2.1-7.6,2.1c-0.6,0-1.1-0.3-1.1-0.8
			s0.3-1.3,0.9-3.5c4.3-15.6,8.1-39.5,9.8-51.6c0.3-2,1.4-2.4,2.5-2.4c3.3,0,10.1,3.8,10.1,5.3C610.6,25.2,610.3,25.6,608.7,30.3z"
			/>
	</g>
</g>
</svg>
