<?xml version="1.0" encoding="utf-8"?>
<!-- Generator: Adobe Illustrator 23.1.1, SVG Export Plug-In . SVG Version: 6.00 Build 0)  -->
<svg version="1.1" id="Lights_2" xmlns="http://www.w3.org/2000/svg" xmlns:xlink="http://www.w3.org/1999/xlink" x="0px" y="0px"
	 viewBox="0 0 1200 1231" style="enable-background:new 0 0 1200 1231;" xml:space="preserve">
<style type="text/css">
	.st0{opacity:3.000000e-02;fill:#008EA0;}
	.st1{opacity:5.000000e-02;fill:#008EA0;}
	.st2{opacity:0.1;fill:#008EA0;}
	.st3{fill:#414042;}
	.st4{opacity:0.5;fill:#A09FA0;}
	.st5{fill:#FFFFFF;}
</style>
<circle class="st0" cx="598" cy="627" r="579"/>
<circle class="st1" cx="598" cy="627" r="578"/>
<circle class="st1" cx="597.5" cy="627" r="577"/>
<circle class="st2" cx="597.5" cy="627" r="576"/>
<circle class="st2" cx="597.5" cy="626.5" r="574.5"/>
<circle class="st2" cx="597" cy="626.5" r="572.5"/>
<circle class="st2" cx="597" cy="626.5" r="570.5"/>
<g>
	<circle class="st3" cx="597.9" cy="626.1" r="568.2"/>
</g>
<g>
	<circle class="st4" cx="503" cy="107.7" r="24"/>
	<circle class="st5" cx="306" cy="187" r="24"/>
	<circle class="st5" cx="701" cy="110.1" r="24"/>
	<circle class="st5" cx="79.8" cy="522.1" r="24"/>
	<circle class="st4" cx="163.2" cy="326.8" r="24"/>
	<circle class="st5" cx="492.2" cy="1143.6" r="24"/>
	<circle class="st4" cx="296.9" cy="1060.2" r="24"/>
	<circle class="st4" cx="77.8" cy="720.4" r="24"/>
	<circle class="st5" cx="157.1" cy="917.4" r="24"/>
	<circle class="st4" cx="897.3" cy="192.7" r="24"/>
	<circle class="st4" cx="1116.7" cy="530.6" r="24"/>
	<circle class="st5" cx="1036.5" cy="334" r="24"/>
	<circle class="st4" cx="694.2" cy="1145.2" r="24"/>
	<circle class="st5" cx="890.8" cy="1065" r="24"/>
	<circle class="st5" cx="1115.5" cy="729" r="24"/>
	<circle class="st4" cx="1033" cy="924.6" r="24"/>
</g>
<g>
	<circle class="st5" cx="596.7" cy="626.6" r="489.5"/>
</g>
</svg>
