<?xml version="1.0" encoding="utf-8"?>
<!-- Generator: Adobe Illustrator 23.1.1, SVG Export Plug-In . SVG Version: 6.00 Build 0)  -->
<svg version="1.1" id="OR" xmlns="http://www.w3.org/2000/svg" xmlns:xlink="http://www.w3.org/1999/xlink" x="0px" y="0px"
	 viewBox="0 0 337.9 337.9" style="enable-background:new 0 0 337.9 337.9;" xml:space="preserve">
<style type="text/css">
	.st0{opacity:1.000000e-02;fill:#414042;enable-background:new    ;}
	.st1{opacity:3.000000e-02;fill:#414042;enable-background:new    ;}
	.st2{opacity:5.000000e-02;fill:#414042;enable-background:new    ;}
	.st3{opacity:0.1;fill:#414042;enable-background:new    ;}
	.st4{opacity:0.15;fill:#414042;enable-background:new    ;}
	.st5{fill:#FFFFFF;}
	.st6{fill:#00A8C4;}
	.st7{fill:#414042;}
</style>
<g>
	<circle class="st0" cx="168.9" cy="167.7" r="149.8"/>
	<circle class="st0" cx="168.9" cy="168.4" r="150.5"/>
	<circle class="st1" cx="168.9" cy="168.4" r="149.1"/>
	<circle class="st1" cx="168.9" cy="168.4" r="147.9"/>
	<circle class="st2" cx="168.9" cy="168.4" r="146.8"/>
	<circle class="st2" cx="168.9" cy="168.4" r="145.8"/>
	<circle class="st2" cx="168.9" cy="168.4" r="144.6"/>
	<circle class="st3" cx="168.9" cy="168.4" r="143.5"/>
	<circle class="st3" cx="168.9" cy="168.4" r="142.3"/>
	<circle class="st3" cx="168.9" cy="168.4" r="141.3"/>
	<circle class="st4" cx="168.9" cy="168.4" r="140.2"/>
	<circle class="st3" cx="168.9" cy="168.4" r="139"/>
	<g>
		<g>
			<circle class="st5" cx="168.5" cy="168" r="137.6"/>
			<g>
				<polyline class="st6" points="157.5,143.8 138.8,232.8 156.7,236.5 175.1,147.2 157.5,143.8 				"/>
				<g>
					<g>
						<g transform="matrix(1 -1.490116e-08 0 1 0 0)">
						</g>
					</g>
				</g>
				<path class="st7" d="M209.6,153.2c5.3-25.1-10.9-49.7-36-55c-25.1-5.3-49.7,10.9-55,36s10.9,49.7,36,55S204.3,178.5,209.6,153.2
					L209.6,153.2z M190.1,149.2c-3,14.3-17.1,23.6-31.5,20.6c-14.3-3-23.7-17.1-20.6-31.5c3-14.3,17.1-23.7,31.5-20.6
					C184,120.7,193.2,134.7,190.1,149.2L190.1,149.2z"/>
				<path class="st6" d="M210.8,191.7c1.3-2.4,2.3-5.2,3-8.2c0.9-3.9,0.9-7.6,0.3-11.2c-0.7-3.6-2.2-6.9-4.7-9.9
					c-2.4-3-5.9-5.7-10.3-8c-4.4-2.3-9.9-4.2-16.5-5.6l-7.5-1.6l-3.3,15.8l7.5,1.6c5.4,1.1,9.3,3.2,11.5,5.9c2.1,2.7,2.9,6.2,2,10.2
					c-0.4,2-1.1,3.7-2,5.4c-1,1.6-2.2,2.9-3.7,3.9c-1.6,1-3.4,1.7-5.6,2c-2.2,0.3-4.7,0.1-7.6-0.4l-7-1.3l-20.9,10.6l21.8,4.6
					c1.6,0.3,2.9,0.9,3.6,1.6c0.7,0.7,1.4,1.7,1.9,3l10.2,27.8c1,3,3.3,4.9,6.9,5.6l19.2,4L196,213.6c-0.7-1.7-1.7-3.9-2.7-5.2
					c-1-1.3-0.9-1-2.1-2.6c3.9-0.6,5.2-1.6,7.7-2.9c2.7-1.3,5-2.9,7-4.7C207.8,196.2,209.4,194.1,210.8,191.7L210.8,191.7z"/>
			</g>
		</g>
	</g>
</g>
</svg>
